<svg width="24" height="24" viewBox="0 0 24 24" fill="none" xmlns="http://www.w3.org/2000/svg">
<g clip-path="url(#clip0_3283_50)">
<path d="M23.2961 1.72754H18.9748C18.1498 1.72754 17.328 2.34939 17.1038 3.14326L15.9365 7.27481C15.8029 7.23764 15.6625 7.21615 15.5162 7.21615H1.55459C1.1103 7.21615 0.68845 7.40047 0.397235 7.72181C0.106019 8.04306 -0.0358819 8.48096 0.00775824 8.92309L0.658888 15.5234C0.745699 16.403 1.50607 17.092 2.39004 17.092H13.2263C14.0547 17.092 14.873 16.4656 15.0892 15.666L16.4466 10.6465L18.4585 3.52607C18.5131 3.33246 18.7737 3.13538 18.9748 3.13538H23.2961C23.6848 3.13538 24 2.82033 24 2.43151C24 2.04269 23.6848 1.72754 23.2961 1.72754ZM13.7303 15.2986C13.6787 15.4897 13.4242 15.6843 13.2263 15.6843H2.38995C2.23547 15.6843 2.07499 15.5389 2.05978 15.3851L1.40865 8.78485C1.40387 8.73595 1.41475 8.69522 1.44037 8.66707C1.46599 8.63882 1.50541 8.6239 1.5545 8.6239H15.5161C15.523 8.6239 15.529 8.62418 15.5343 8.62455C15.5333 8.62981 15.5319 8.63563 15.5302 8.6422L13.7303 15.2986Z" fill="#000002"/>
<path d="M4.4443 17.8938C3.23711 17.8938 2.25488 18.8759 2.25488 20.0831C2.25488 21.2903 3.23702 22.2725 4.4443 22.2725C5.65149 22.2725 6.63363 21.2903 6.63363 20.0831C6.63363 18.8759 5.65159 17.8938 4.4443 17.8938ZM4.4443 20.8647C4.01334 20.8647 3.66263 20.5141 3.66263 20.0831C3.66263 19.6522 4.01325 19.3015 4.4443 19.3015C4.87526 19.3015 5.22588 19.6522 5.22588 20.0831C5.22588 20.5141 4.87535 20.8647 4.4443 20.8647Z" fill="#000002"/>
<path d="M11.3866 17.8938C10.1794 17.8938 9.19727 18.8759 9.19727 20.0831C9.19727 21.2903 10.1794 22.2725 11.3866 22.2725C12.5938 22.2725 13.576 21.2903 13.576 20.0831C13.576 18.8759 12.5938 17.8938 11.3866 17.8938ZM11.3866 20.8647C10.9556 20.8647 10.605 20.5141 10.605 20.0831C10.605 19.6522 10.9556 19.3015 11.3866 19.3015C11.8175 19.3015 12.1683 19.6522 12.1683 20.0831C12.1683 20.5141 11.8175 20.8647 11.3866 20.8647Z" fill="#000002"/>
</g>
<defs>
<clipPath id="clip0_3283_50">
<rect width="24" height="24" fill="white"/>
</clipPath>
</defs>
</svg>
