<svg width="16" height="16" viewBox="0 0 16 16" fill="none" xmlns="http://www.w3.org/2000/svg">
<g clip-path="url(#clip0_3283_75)">
<path d="M14.7163 7.219C14.7163 6.44361 14.0855 5.81275 13.3101 5.81275H12.9722L13.5457 3.67273C13.5715 3.57605 13.5658 3.47339 13.5292 3.38013L12.6067 1.03016C12.5523 0.891606 12.4354 0.787114 12.2916 0.748662C12.148 0.710087 11.9944 0.74207 11.8781 0.834843L9.90418 2.40882C9.82581 2.47132 9.76954 2.55726 9.74366 2.65406L8.89722 5.81275H7.83827L4.86341 0.660038C4.68202 0.346074 4.3838 0.125493 4.02357 0.0388227C3.67225 -0.0455279 3.30433 0.00854929 2.98756 0.191533C2.45399 0.499516 2.19545 1.09851 2.30665 1.65503L1.54689 2.09363C1.43922 2.15577 1.36073 2.25806 1.3285 2.37818C1.29628 2.4983 1.31312 2.62622 1.37538 2.73389L2.53285 4.7389C2.61976 4.88929 2.77723 4.97339 2.93922 4.97339C3.01881 4.97339 3.09938 4.95313 3.17323 4.9104C3.39735 4.78101 3.47426 4.49439 3.34474 4.27015L2.42152 2.67115L2.71583 2.50122L3.00685 3.0055H3.00697V3.00562L4.6277 5.81275H4.43275C3.65736 5.81275 3.0265 6.44361 3.0265 7.219C3.0265 7.97339 3.62379 8.5907 4.37025 8.62354V13.7172C4.37025 14.976 5.43568 16 6.74525 16H10.9976C12.3071 16 13.3727 14.976 13.3727 13.7172V8.62354C14.1191 8.5907 14.7163 7.97339 14.7163 7.219ZM11.9659 1.96375L12.6001 3.57911L12.5592 3.73194L10.5682 3.19849L10.6091 3.04566L11.9659 1.96375ZM10.3256 4.10401L12.3165 4.63745L12.0016 5.81275H9.86768L10.3256 4.10401ZM3.45631 1.00342C3.5641 0.941166 3.68776 0.922245 3.80446 0.950322C3.91236 0.976323 4.00001 1.03968 4.05153 1.12879L4.36866 1.6781L3.58448 2.13086L3.26735 1.58155C3.15724 1.39087 3.24379 1.1261 3.45631 1.00342ZM4.05323 2.94275L4.83741 2.48999L6.75575 5.81275H5.71009L4.05323 2.94275ZM12.4352 13.7172C12.4352 14.459 11.7903 15.0625 10.9976 15.0625H6.74525C5.95252 15.0625 5.30775 14.459 5.30775 13.7172V8.62513H12.4352V13.7172ZM13.3101 7.68763H4.43275C4.17433 7.68763 3.964 7.47742 3.964 7.219C3.964 6.96045 4.17433 6.75025 4.43275 6.75025H9.25343C9.25465 6.75025 9.25587 6.75037 9.25721 6.75037C9.25819 6.75037 9.25916 6.75025 9.26014 6.75025H13.3101C13.5686 6.75025 13.7788 6.96045 13.7788 7.219C13.7788 7.47742 13.5686 7.68763 13.3101 7.68763Z" fill="#1D1D1B"/>
</g>
<defs>
<clipPath id="clip0_3283_75">
<rect width="16" height="16" fill="white"/>
</clipPath>
</defs>
</svg>
