<svg width="20" height="20" viewBox="0 0 20 20" fill="none" xmlns="http://www.w3.org/2000/svg">
<path d="M9.6 17.2374C9.46616 17.0797 9.30113 16.8821 9.11323 16.6505C8.59467 16.0116 7.90408 15.1174 7.21448 14.0953C6.52392 13.0718 5.84053 11.9291 5.3313 10.7925C4.81914 9.64923 4.5 8.54883 4.5 7.6C4.5 4.78014 6.78014 2.5 9.6 2.5C12.4199 2.5 14.7 4.78014 14.7 7.6C14.7 8.54883 14.3809 9.64923 13.8687 10.7925C13.3595 11.9291 12.6761 13.0718 11.9855 14.0953C11.2959 15.1174 10.6053 16.0116 10.0868 16.6505C9.89887 16.8821 9.73384 17.0797 9.6 17.2374ZM7.83223 9.36777C8.30107 9.83661 8.93696 10.1 9.6 10.1C10.263 10.1 10.8989 9.83661 11.3678 9.36777C11.8366 8.89893 12.1 8.26304 12.1 7.6C12.1 6.93696 11.8366 6.30107 11.3678 5.83223C10.8989 5.36339 10.263 5.1 9.6 5.1C8.93696 5.1 8.30107 5.36339 7.83223 5.83223C7.36339 6.30107 7.1 6.93696 7.1 7.6C7.1 8.26304 7.36339 8.89893 7.83223 9.36777Z" stroke="#1D1D1B"/>
</svg>
