<svg width="24" height="24" viewBox="0 0 24 24" fill="none" xmlns="http://www.w3.org/2000/svg">
<g clip-path="url(#clip0_3283_41)">
<path d="M23.9887 8.53373C23.8982 6.84218 23.1821 5.25383 21.9722 4.06124C20.7442 2.85075 19.1405 2.18408 17.4568 2.18408C14.9354 2.18408 13.1501 4.13162 12.1911 5.17797C12.1365 5.23746 12.0779 5.30139 12.0206 5.36319C11.9899 5.32834 11.9594 5.29359 11.9303 5.26047C11.0537 4.26187 9.22936 2.18408 6.54364 2.18408C4.85988 2.18408 3.25632 2.85075 2.02831 4.06124C0.818294 5.25383 0.102145 6.84218 0.0116514 8.53373C-0.0782643 10.2153 0.349269 11.6744 1.39755 13.265C2.33704 14.6908 4.78364 16.9452 6.59322 18.4424C8.45314 19.9813 10.9029 21.8159 12.0105 21.8159C13.1355 21.8159 15.5766 19.9852 17.4262 18.4495C19.2218 16.9588 21.6549 14.7062 22.6031 13.2644C23.3087 12.1916 24.1039 10.6843 23.9887 8.53373ZM21.3967 12.471C20.7077 13.5189 18.7655 15.4548 16.5639 17.2887C13.9387 19.4753 12.3844 20.3372 12.0117 20.3714C11.6395 20.3326 10.0814 19.4622 7.44337 17.2714C5.22879 15.4323 3.28376 13.5029 2.60332 12.4704C1.73584 11.1542 1.38128 9.96391 1.45358 8.61075C1.60058 5.86331 3.884 3.62803 6.54354 3.62803C8.5755 3.62803 10.0519 5.30967 10.8452 6.21296C11.3115 6.74418 11.5684 7.03674 12.0003 7.03674C12.4461 7.03674 12.7337 6.723 13.2556 6.15356C14.1215 5.20887 15.5706 3.62803 17.4568 3.62803C20.1164 3.62803 22.3997 5.86331 22.5468 8.61075C22.62 9.97922 22.276 11.1338 21.3967 12.471Z" fill="#1D1D1B"/>
</g>
<defs>
<clipPath id="clip0_3283_41">
<rect width="24" height="24" fill="white"/>
</clipPath>
</defs>
</svg>
