<svg width="22" height="20" viewBox="0 0 22 20" fill="none" xmlns="http://www.w3.org/2000/svg">
    <path fill-rule="evenodd" clip-rule="evenodd" d="M4.167 3.333a2.5 2.5 0 00-2.5 2.5v8.333a2.5 2.5 0 002.5 2.5h11.666a2.5 2.5 0 002.5-2.5V5.833a2.5 2.5 0 00-2.5-2.5H4.167zm-.758 2.152A.833.833 0 014.167 5h11.666c.336 0 .626.198.757.485l-6.078 4.728a.833.833 0 01-1.024 0L3.41 5.485zm-.076 2.052v4.85l3.01-2.509-3.01-2.341zm.07 6.962c.128.295.422.5.764.5h11.666a.834.834 0 00.764-.5l-4.288-3.573-.774.602a2.5 2.5 0 01-3.07 0l-.775-.602-4.288 3.573zm13.264-2.112v-4.85l-3.01 2.341 3.01 2.51z" fill="#1C294D" fill-opacity=".5"/>
</svg>
