<svg width="20" height="20" viewBox="0 0 20 20" fill="none" xmlns="http://www.w3.org/2000/svg">
<path fill-rule="evenodd" clip-rule="evenodd" d="M9.99687 0.00585938C7.28187 0.00585938 6.94143 0.0173673 5.87516 0.0660181C4.81111 0.11455 4.0844 0.283558 3.44853 0.530701C2.79115 0.786137 2.23365 1.12796 1.67786 1.68372C1.1221 2.23951 0.780278 2.79701 0.524841 3.45439C0.277698 4.09026 0.10869 4.81697 0.0601587 5.88102C0.0115079 6.94729 0 7.28772 0 10.0027C0 12.7177 0.0115079 13.0581 0.0601587 14.1244C0.10869 15.1884 0.277698 15.9151 0.524841 16.551C0.780278 17.2084 1.1221 17.7659 1.67786 18.3217C2.23365 18.8774 2.79115 19.2193 3.44853 19.4747C4.0844 19.7219 4.81111 19.8909 5.87516 19.9394C6.94143 19.988 7.28187 19.9995 9.99687 19.9995C12.7118 19.9995 13.0523 19.988 14.1185 19.9394C15.1826 19.8909 15.9093 19.7219 16.5452 19.4747C17.2025 19.2193 17.76 18.8774 18.3158 18.3217C18.8716 17.7659 19.2134 17.2084 19.4689 16.551C19.716 15.9151 19.885 15.1884 19.9335 14.1244C19.9822 13.0581 19.9937 12.7177 19.9937 10.0027C19.9937 7.28772 19.9822 6.94729 19.9335 5.88102C19.885 4.81697 19.716 4.09026 19.4689 3.45439C19.2134 2.79701 18.8716 2.23951 18.3158 1.68372C17.76 1.12796 17.2025 0.786137 16.5452 0.530701C15.9093 0.283558 15.1826 0.11455 14.1185 0.0660181C13.0523 0.0173673 12.7118 0.00585938 9.99687 0.00585938ZM9.99687 1.80709C12.6661 1.80709 12.9823 1.81729 14.0364 1.86538C15.0111 1.90983 15.5404 2.07268 15.8927 2.20959C16.3593 2.39094 16.6923 2.60757 17.0421 2.95741C17.392 3.30721 17.6086 3.64022 17.79 4.10685C17.9269 4.45911 18.0897 4.98844 18.1342 5.96312C18.1823 7.01725 18.1925 7.33344 18.1925 10.0027C18.1925 12.672 18.1823 12.9882 18.1342 14.0423C18.0897 15.017 17.9269 15.5463 17.79 15.8986C17.6086 16.3652 17.392 16.6982 17.0421 17.048C16.6923 17.3978 16.3593 17.6145 15.8927 17.7958C15.5404 17.9327 15.0111 18.0956 14.0364 18.14C12.9825 18.1881 12.6663 18.1983 9.99687 18.1983C7.32738 18.1983 7.01127 18.1881 5.95726 18.14C4.98258 18.0956 4.45325 17.9327 4.10099 17.7958C3.63437 17.6145 3.30135 17.3978 2.95155 17.048C2.60175 16.6982 2.38508 16.3652 2.20373 15.8986C2.06683 15.5463 1.90397 15.017 1.85952 14.0423C1.81143 12.9882 1.80123 12.672 1.80123 10.0027C1.80123 7.33344 1.81143 7.01725 1.85952 5.96312C1.90397 4.98844 2.06683 4.45911 2.20373 4.10685C2.38508 3.64022 2.60171 3.30721 2.95155 2.95741C3.30135 2.60757 3.63437 2.39094 4.10099 2.20959C4.45325 2.07268 4.98258 1.90983 5.95726 1.86538C7.01139 1.81729 7.32758 1.80709 9.99687 1.80709Z" fill="#282F36" fill-opacity="0.3"/>
<path fill-rule="evenodd" clip-rule="evenodd" d="M9.99687 13.3359C8.15648 13.3359 6.66457 11.844 6.66457 10.0036C6.66457 8.16325 8.15648 6.67135 9.99687 6.67135C11.8372 6.67135 13.3291 8.16325 13.3291 10.0036C13.3291 11.844 11.8372 13.3359 9.99687 13.3359ZM9.99687 4.87012C7.16168 4.87012 4.86334 7.16845 4.86334 10.0036C4.86334 12.8388 7.16168 15.1371 9.99687 15.1371C12.832 15.1371 15.1304 12.8388 15.1304 10.0036C15.1304 7.16845 12.832 4.87012 9.99687 4.87012Z" fill="#282F36" fill-opacity="0.3"/>
<path fill-rule="evenodd" clip-rule="evenodd" d="M16.5328 4.66644C16.5328 5.32898 15.9957 5.86604 15.3331 5.86604C14.6706 5.86604 14.1335 5.32898 14.1335 4.66644C14.1335 4.0039 14.6706 3.4668 15.3331 3.4668C15.9957 3.4668 16.5328 4.0039 16.5328 4.66644Z" fill="#282F36" fill-opacity="0.3"/>
</svg>
